<svg id="Line" height="512" viewBox="0 0 64 64" width="512" xmlns="http://www.w3.org/2000/svg"><path d="m27.14258 27.17871a1 1 0 0 0 2 0 4.86417 4.86417 0 0 0 -3.85645-4.75152v-1.03412a1 1 0 0 0 -2 0v1.034a4.86546 4.86546 0 0 0 .00014 9.50281l-.00014 5.62976a2.85447 2.85447 0 0 1 -1.85742-2.66656 1 1 0 0 0 -2 0 4.86359 4.86359 0 0 0 3.85742 4.75116v1.03448a1 1 0 1 0 2 0v-1.03462a4.86557 4.86557 0 0 0 -.00013-9.50255l.00013-5.62983a2.85437 2.85437 0 0 1 1.85645 2.66699zm-5.71387 0a2.85474 2.85474 0 0 1 1.85742-2.667v5.33362a2.85447 2.85447 0 0 1 -1.85742-2.66662zm5.71387 7.71436a2.85415 2.85415 0 0 1 -1.85645 2.6665v-5.3335a2.85437 2.85437 0 0 1 1.85645 2.667z"/><path d="m48.40234 29.97363a11.52 11.52 0 0 0 -3.832.66431v-5.3523h10.57224a.99974.99974 0 0 0 1-1v-13.5a6.79348 6.79348 0 0 0 -6.78223-6.78564h-38.57035a6.7976 6.7976 0 0 0 -6.79 6.79v46.27982a1.00083 1.00083 0 0 0 .71289.958l6.42969 1.93018c-.22749.40393 6.67357-1.89511 6.707-1.84416l6.14358 1.84416a1.00033 1.00033 0 0 0 .5752-.00049l6.13184-1.84375 6.15234 1.84424a1.0082 1.0082 0 0 0 .57422 0l6.43066-1.93018a1.00083 1.00083 0 0 0 .71289-.958v-4.56475a11.52029 11.52029 0 0 0 3.832.66436c15.37824-.63398 15.38869-22.5577.00003-23.1958zm5.74024-19.188v12.5h-9.57129v-12.5c.20051-6.32188 9.37071-6.32526 9.57129.00001zm-11.57227 45.54-5.43066 1.63037-6.15235-1.84418a1.003 1.003 0 0 0 -.57519.00048l-6.13184 1.84375-6.14355-1.84423a1.003 1.003 0 0 0 -.5752.00048l-6.13183 1.84375-5.42969-1.62988v-45.53617a4.79531 4.79531 0 0 1 4.79-4.79h33.7616a6.76349 6.76349 0 0 0 -1.98035 4.78564c.00155 4.76774-.00173 16.16091-.001 20.77753a11.56931 11.56931 0 0 0 0 20.0166zm5.832-5.15625a9.60885 9.60885 0 0 1 -9.59765-9.59814c.52748-12.73251 18.66983-12.7288 19.19534.00012a9.60886 9.60886 0 0 1 -9.59766 9.59807z"/><path d="m53.70605 40.57129h-4.30371v-4.30322a1.00019 1.00019 0 0 0 -2 .00006v4.30316h-4.30371a1 1 0 0 0 0 2h4.30371v4.30371a1 1 0 0 0 2 0v-4.30371h4.30371a1.00019 1.00019 0 0 0 0-2z"/></svg>