<svg id="Capa_1" enable-background="new 0 0 511.339 511.339" height="512" viewBox="0 0 511.339 511.339" width="512" xmlns="http://www.w3.org/2000/svg"><g><path d="m511.305 148.433c0-17.951-14.604-32.555-32.554-32.555h-47.088c-4.143 0-7.5 3.357-7.5 7.5s3.357 7.5 7.5 7.5h47.088c9.679 0 17.554 7.875 17.554 17.555v8.748h-92.213c-4.143 0-7.5 3.357-7.5 7.5s3.357 7.5 7.5 7.5h20.518l-207.72 248.177-52.537-45.84 137.039-163.731c2.659-3.176 2.239-7.906-.938-10.564-3.177-2.66-7.906-2.238-10.564.938l-141.755 169.364c-2.62 3.13-2.256 7.781.82 10.465l132.202 115.349h-70.979l-90.949-79.354c-1.519-1.325-3.509-1.98-5.517-1.826-2.01.158-3.871 1.118-5.165 2.664l-65.717 78.517h-10.243c-9.679 0-17.554-7.874-17.554-17.553v-21.942l58.26-69.607c2.659-3.176 2.239-7.906-.938-10.564-3.177-2.66-7.906-2.239-10.564.938l-46.758 55.865v-216.499l104.725 91.374-37.372 44.651c-2.659 3.176-2.239 7.906.938 10.564 1.404 1.176 3.111 1.749 4.81 1.749 2.144 0 4.271-.914 5.755-2.687l42.088-50.285c2.62-3.13 2.256-7.781-.82-10.465l-120.123-104.808v-24.89h42.452l107.396 93.706c1.371 1.196 3.124 1.849 4.931 1.849.194 0 .391-.008.586-.022 2.01-.158 3.871-1.118 5.165-2.664l77.729-92.868h19.012c4.143 0 7.5-3.357 7.5-7.5s-3.357-7.5-7.5-7.5h-257.271v-8.748c0-9.68 7.875-17.555 17.554-17.555h212.16c4.143 0 7.5-3.357 7.5-7.5s-3.357-7.5-7.5-7.5h-212.161c-17.95 0-32.554 14.604-32.554 32.555v330.354c0 17.949 14.604 32.553 32.554 32.553h446.164c8.638 0 16.495-3.388 22.329-8.897.167-.144.326-.298.481-.459 6.009-5.909 9.744-14.124 9.744-23.196zm-342.331 101.118-88.673-77.37h153.432zm327.331 155.535-96.318-84.04 96.318-115.079zm-381.168 28.234 72.226 63.019h-124.972zm188.836 63.019-29.303-25.568 26.97-32.223c2.659-3.176 2.239-7.906-.938-10.564-3.177-2.66-7.908-2.239-10.564.938l-26.772 31.987-35.17-30.687 215.974-258.041h52.135v10.417l-112.536 134.455c-2.62 3.13-2.256 7.781.82 10.465l111.716 97.475v53.793c0 2.449-.508 4.78-1.417 6.9l-140.024-122.174c-1.519-1.325-3.51-1.991-5.517-1.825-2.01.157-3.872 1.117-5.165 2.663l-33.449 39.965c-2.659 3.176-2.239 7.906.938 10.564 3.177 2.659 7.907 2.24 10.564-.938l28.536-34.094 132.739 115.819c-1.516.428-3.108.673-4.759.673z"/><path d="m306.439 52.865c-6.607 7.627-10.245 17.39-10.245 27.491 0 23.161 18.843 42.005 42.004 42.005 12.197 0 23.773-5.292 31.757-14.514 6.608-7.623 10.248-17.386 10.248-27.491 0-23.164-18.844-42.009-42.005-42.009-12.197.001-23.773 5.293-31.759 14.518zm58.764 27.491c0 6.496-2.338 12.77-6.585 17.669-5.137 5.934-12.579 9.336-20.42 9.336-14.89 0-27.004-12.114-27.004-27.005 0-6.494 2.338-12.771 6.584-17.671 0-.001.001-.002.001-.002 5.137-5.934 12.579-9.336 20.419-9.336 14.89.001 27.005 12.117 27.005 27.009z"/><path d="m306.559 173.589c4.823 6.65 8.148 14.095 9.885 22.126l2.465 11.407c1.949 9.02 10.062 15.566 19.29 15.566s17.34-6.547 19.289-15.566l2.465-11.407c1.735-8.031 5.061-15.476 9.885-22.126l10.904-15.036c2.432-3.354 1.685-8.043-1.668-10.475-3.353-2.433-8.043-1.686-10.475 1.668l-10.904 15.036c-6.053 8.345-10.227 17.687-12.404 27.765l-2.465 11.407c-.467 2.164-2.413 3.734-4.627 3.734s-4.16-1.57-4.628-3.734l-2.465-11.408c-2.179-10.077-6.353-19.418-12.404-27.764l-32.987-45.484c-8.42-11.326-12.87-24.792-12.87-38.943 0-17.748 6.994-34.354 19.693-46.757 12.695-12.399 29.494-18.992 47.242-18.578 16.851.396 32.74 7.277 44.741 19.375 12 12.097 18.756 28.042 19.022 44.899.23 14.541-4.218 28.375-12.914 40.074l-3.028 4.176c-2.433 3.354-1.687 8.043 1.666 10.475 3.353 2.433 8.042 1.688 10.475-1.666l2.979-4.105c10.633-14.306 16.104-31.315 15.821-49.191-.328-20.75-8.629-40.363-23.372-55.226-14.744-14.863-34.29-23.318-55.036-23.807-21.827-.52-42.468 7.598-58.077 22.844-15.613 15.25-24.212 35.666-24.212 57.487 0 17.398 5.475 33.96 15.78 47.821z"/></g></svg>