<svg height="512" viewBox="0 0 64 64" width="512" xmlns="http://www.w3.org/2000/svg"><g id="_19-eco_city" data-name="19-eco city"><path d="m48 4h2v2h-2z"/><path d="m52 4h2v2h-2z"/><path d="m48 8h2v2h-2z"/><path d="m52 8h2v2h-2z"/><path d="m48 12h2v2h-2z"/><path d="m52 12h2v2h-2z"/><path d="m48 16h2v2h-2z"/><path d="m52 16h2v2h-2z"/><path d="m48 20h2v2h-2z"/><path d="m52 20h2v2h-2z"/><path d="m48 24h2v2h-2z"/><path d="m52 24h2v2h-2z"/><path d="m33 19h4v2h-4z"/><path d="m33 23h4v2h-4z"/><path d="m33 27h4v2h-4z"/><path d="m63 21h-5v-20a1 1 0 0 0 -1-1h-12a1 1 0 0 0 -1 1v30h-3v-14h1a1 1 0 0 0 1-1v-4a1 1 0 0 0 -1-1h-6v-7a1 1 0 0 0 -2 0v7h-6a1 1 0 0 0 -1 1v4a1 1 0 0 0 1 1h1v14h-5v-1.1a5 5 0 0 0 4-4.9c0-2.24-1.77-9-5-9s-5 6.76-5 9a5 5 0 0 0 4 4.9v1.1h-11v-5.11a5.06 5.06 0 0 0 3.08-2 5 5 0 0 0 -.16-9.78 5 5 0 0 0 -9.92.89v.1a5 5 0 0 0 1 9.9 4.73 4.73 0 0 0 1.66-.3 4.94 4.94 0 0 0 2.34 1.19v5.11h-8a1 1 0 0 0 -1 1 32 32 0 0 0 64 0v-10a1 1 0 0 0 -1-1zm-43 4c0-2.75 2-7 3-7s3 4.25 3 7a3 3 0 0 1 -2 2.82v-3.82h-2v3.82a3 3 0 0 1 -2-2.82zm-12.32-2.13a1 1 0 0 0 -.78-.37 1 1 0 0 0 -.48.12 3 3 0 0 1 -1.42.38 3 3 0 0 1 -.06-6h.17a1 1 0 0 0 .82-.37 1 1 0 0 0 .18-.88 3.24 3.24 0 0 1 -.11-.75 3 3 0 0 1 6 0 1 1 0 0 0 1 1 3 3 0 0 1 .35 6 1 1 0 0 0 -.75.5 3 3 0 0 1 -1.6 1.3v-3.8h-2v3.8a2.91 2.91 0 0 1 -1.32-.93zm54.32.13v8h-4v-8zm-16-21h10v29h-10zm-17 11h12v2h-12zm2 4h8v14h-8zm-13.85 16 .85 4.84-1.85 3.71a1 1 0 0 0 .06 1l1.92 2.89 1 2.88a1 1 0 0 0 .5.57l2 1a1 1 0 0 0 .84 0l6.53-2.79 1.58.79.13.06 2.94 1 1.88.94 2.11 1.41-1.44 2.17a1 1 0 0 0 -.06 1l1.24 2.53h-2.08l-2.75-1.83a1 1 0 0 0 -.79-.14l-3.88 1h-3.47l-1.63-1.64-2-2.91a.92.92 0 0 0 -.23-.25l-4-3a1 1 0 0 0 -.84-.17l-3.57.89-2.59-1.78a1 1 0 0 0 -.55-.17h-3a29.75 29.75 0 0 1 -4-14zm-9.85 16h1.4l2.75 1.83a1 1 0 0 0 .79.14l3.54-.88 3.48 2.61 1.91 2.85a1 1 0 0 0 .12.16l2 2a1 1 0 0 0 .71.29h4a1 1 0 0 0 .24 0l3.57-.89 2.64 1.75a1 1 0 0 0 .55.14h4a1 1 0 0 0 .89-1.45l-1.74-3.48 1.68-2.52a1 1 0 0 0 -.28-1.38l-3-2a.27.27 0 0 0 -.1-.06l-2-1-.13-.06-2.94-1-1.93-1a1 1 0 0 0 -.84 0l-6.61 2.85-1.21-.61-.79-2.61a1 1 0 0 0 -.12-.23l-1.68-2.52 1.74-3.48a1 1 0 0 0 .1-.61l-.86-4.84h29l.82 3.24a1 1 0 0 0 .65.71l2.48.83.87 3.46a1 1 0 0 0 .26.47l1.6 1.6-.73 2.91-2.13.78-2.68-.9a1 1 0 0 0 -1.29.71l-1 4a1 1 0 0 0 .42 1.07l3 2a1 1 0 0 0 .55.12h1.36a29.94 29.94 0 0 1 -45.06-5zm47 3h-3l-2.16-1.44.57-2.27 2 .66a1 1 0 0 0 .64 0l3-1a1 1 0 0 0 .65-.71l1-4a1 1 0 0 0 -.26-1l-1.81-1.8-.93-3.68a1 1 0 0 0 -.65-.71l-2.48-.83-.59-2.22h11.72a29.84 29.84 0 0 1 -7.67 19z"/><path d="m59 24h2v2h-2z"/><path d="m59 28h2v2h-2z"/><path d="m48 44v-4a1 1 0 0 0 -.8-1l-4.6-.92-1.77-2.65a1 1 0 0 0 -1.2-.38l-5 2a1 1 0 0 0 -.58.61 1 1 0 0 0 .09.83l3 5a1 1 0 0 0 .49.42l5 2a.94.94 0 0 0 .37.09 1 1 0 0 0 .24 0l4-1a1 1 0 0 0 .76-1zm-2-.78-2.93.78-4.39-1.8-2.22-3.71 3.16-1.26 1.55 2.32a.94.94 0 0 0 .63.43l4.2.84z"/></g></svg>