<?xml version="1.0" encoding="UTF-8" standalone="no"?>
<!-- Created with Inkscape (http://www.inkscape.org/) -->

<svg
   version="1.1"
   id="svg1965"
   xml:space="preserve"
   width="682.66669"
   height="682.66669"
   viewBox="0 0 682.66669 682.66669"
   xmlns="http://www.w3.org/2000/svg"
   xmlns:svg="http://www.w3.org/2000/svg"><defs
     id="defs1969"><clipPath
       clipPathUnits="userSpaceOnUse"
       id="clipPath1979"><path
         d="M 0,512 H 512 V 0 H 0 Z"
         id="path1977" /></clipPath></defs><g
     id="g1971"
     transform="matrix(1.3333333,0,0,-1.3333333,0,682.66667)"><g
       id="g1973"><g
         id="g1975"
         clip-path="url(#clipPath1979)"><g
           id="g1981"
           transform="translate(121.8555,261.3369)"><path
             d="m 0,0 68.372,16.928 c 20.51,5.078 42.216,0.866 59.339,-11.514"
             style="fill:none;stroke:#000000;stroke-width:20;stroke-linecap:round;stroke-linejoin:round;stroke-miterlimit:10;stroke-dasharray:none;stroke-opacity:1"
             id="path1983" /></g><g
           id="g1985"
           transform="translate(173.1079,158.8027)"><path
             d="m 0,0 v 0 c -8.778,8.778 -23.01,8.778 -31.788,0 l -15.068,-15.068 c -8.778,-8.779 -8.778,-23.01 0,-31.788 8.778,-8.778 23.01,-8.778 31.788,0 L 0,-31.788 C 8.778,-23.01 8.778,-8.778 0,0 Z"
             style="fill:none;stroke:#000000;stroke-width:20;stroke-linecap:round;stroke-linejoin:round;stroke-miterlimit:10;stroke-dasharray:none;stroke-opacity:1"
             id="path1987" /></g><g
           id="g1989"
           transform="translate(204.896,127.0151)"><path
             d="m 0,0 v 0 c -8.778,8.778 -23.01,8.778 -31.788,0 l -15.068,-15.069 c -8.778,-8.778 -8.778,-23.01 0,-31.787 8.777,-8.778 23.009,-8.778 31.787,0 L 0,-31.788 C 8.778,-23.01 8.778,-8.778 0,0 Z"
             style="fill:none;stroke:#000000;stroke-width:20;stroke-linecap:round;stroke-linejoin:round;stroke-miterlimit:10;stroke-dasharray:none;stroke-opacity:1"
             id="path1991" /></g><g
           id="g1993"
           transform="translate(236.6836,95.2275)"><path
             d="m 0,0 v 0 c -8.778,8.778 -23.01,8.778 -31.788,0 l -15.068,-15.069 c -8.778,-8.778 -8.778,-23.01 0,-31.787 8.777,-8.778 23.009,-8.778 31.787,0 L 0,-31.788 C 8.778,-23.01 8.778,-8.778 0,0 Z"
             style="fill:none;stroke:#000000;stroke-width:20;stroke-linecap:round;stroke-linejoin:round;stroke-miterlimit:10;stroke-dasharray:none;stroke-opacity:1"
             id="path1995" /></g><g
           id="g1997"
           transform="translate(268.4712,63.4395)"><path
             d="m 0,0 v 0 c -8.778,8.778 -23.01,8.778 -31.788,0 l -15.068,-15.068 c -8.778,-8.778 -8.778,-23.01 0,-31.788 8.778,-8.778 23.009,-8.778 31.788,0 L 0,-31.788 C 8.778,-23.01 8.778,-8.778 0,0 Z"
             style="fill:none;stroke:#000000;stroke-width:20;stroke-linecap:round;stroke-linejoin:round;stroke-miterlimit:10;stroke-dasharray:none;stroke-opacity:1"
             id="path1999" /></g><g
           id="g2001"
           transform="translate(303.3345,155.7642)"><path
             d="m 0,0 38.08,-38.079 c 8.777,-8.778 23.009,-8.778 31.787,0 8.778,8.778 8.778,23.01 0,31.787 L -0.24,67.253"
             style="fill:none;stroke:#000000;stroke-width:20;stroke-linecap:round;stroke-linejoin:round;stroke-miterlimit:10;stroke-dasharray:none;stroke-opacity:1"
             id="path2003" /></g><g
           id="g2005"
           transform="translate(271.5469,123.9766)"><path
             d="m 0,0 38.08,-38.08 c 8.777,-8.777 23.009,-8.777 31.787,0 8.778,8.779 8.778,23.01 0,31.788 L 15.894,47.682"
             style="fill:none;stroke:#000000;stroke-width:20;stroke-linecap:round;stroke-linejoin:round;stroke-miterlimit:10;stroke-dasharray:none;stroke-opacity:1"
             id="path2007" /></g><g
           id="g2009"
           transform="translate(239.7593,92.189)"><path
             d="m 0,0 38.079,-38.08 c 8.778,-8.777 23.01,-8.777 31.788,0 8.778,8.778 8.778,23.01 0,31.788 L 15.894,47.681"
             style="fill:none;stroke:#000000;stroke-width:20;stroke-linecap:round;stroke-linejoin:round;stroke-miterlimit:10;stroke-dasharray:none;stroke-opacity:1"
             id="path2011" /></g><g
           id="g2013"
           transform="translate(378.8887,139.8701)"><path
             d="M 0,0 35.541,17.453"
             style="fill:none;stroke:#000000;stroke-width:20;stroke-linecap:round;stroke-linejoin:round;stroke-miterlimit:10;stroke-dasharray:none;stroke-opacity:1"
             id="path2015" /></g><g
           id="g2017"
           transform="translate(126.252,143.7344)"><path
             d="M 0,0 -26.879,12.768"
             style="fill:none;stroke:#000000;stroke-width:20;stroke-linecap:round;stroke-linejoin:round;stroke-miterlimit:10;stroke-dasharray:none;stroke-opacity:1"
             id="path2019" /></g><g
           id="g2021"
           transform="translate(10,345.8892)"><path
             d="M 0,0 117.369,-60.951 82.849,-206.019 0,-179.778 Z"
             style="fill:none;stroke:#000000;stroke-width:20;stroke-linecap:round;stroke-linejoin:round;stroke-miterlimit:10;stroke-dasharray:none;stroke-opacity:1"
             id="path2023" /></g><g
           id="g2025"
           transform="translate(502,345.8892)"><path
             d="M 0,0 -117.369,-60.951 -82.849,-206.019 0,-179.778 Z"
             style="fill:none;stroke:#000000;stroke-width:20;stroke-linecap:round;stroke-linejoin:round;stroke-miterlimit:10;stroke-dasharray:none;stroke-opacity:1"
             id="path2027" /></g><g
           id="g2029"
           transform="translate(305.4067,410.7163)"><path
             d="m 0,0 c 11.263,11.262 26.822,18.228 44.008,18.228 h 21.528 c 34.372,0 62.236,-27.864 62.236,-62.236 V -54.781 H 32.177"
             style="fill:none;stroke:#000000;stroke-width:20;stroke-linecap:round;stroke-linejoin:round;stroke-miterlimit:10;stroke-dasharray:none;stroke-opacity:1"
             id="path2031" /></g><g
           id="g2033"
           transform="translate(360.1787,502)"><path
             d="m 0,0 v 0 c 16.773,0 30.37,-13.597 30.37,-30.37 v -12.315 c 0,-16.773 -13.597,-30.371 -30.37,-30.371 -16.773,0 -30.371,13.598 -30.371,30.371 V -30.37 C -30.371,-13.597 -16.773,0 0,0 Z"
             style="fill:none;stroke:#000000;stroke-width:20;stroke-linecap:round;stroke-linejoin:round;stroke-miterlimit:10;stroke-dasharray:none;stroke-opacity:1"
             id="path2035" /></g><g
           id="g2037"
           transform="translate(206.5933,410.7163)"><path
             d="m 0,0 c -11.263,11.262 -26.822,18.228 -44.008,18.228 h -21.528 c -34.372,0 -62.236,-27.864 -62.236,-62.236 v -10.773 h 95.599"
             style="fill:none;stroke:#000000;stroke-width:20;stroke-linecap:round;stroke-linejoin:round;stroke-miterlimit:10;stroke-dasharray:none;stroke-opacity:1"
             id="path2039" /></g><g
           id="g2041"
           transform="translate(151.8213,502)"><path
             d="m 0,0 v 0 c -16.773,0 -30.37,-13.597 -30.37,-30.37 v -12.315 c 0,-16.773 13.597,-30.371 30.37,-30.371 16.773,0 30.371,13.598 30.371,30.371 V -30.37 C 30.371,-13.597 16.773,0 0,0 Z"
             style="fill:none;stroke:#000000;stroke-width:20;stroke-linecap:round;stroke-linejoin:round;stroke-miterlimit:10;stroke-dasharray:none;stroke-opacity:1"
             id="path2043" /></g><g
           id="g2045"
           transform="translate(303.0947,223.0176)"><path
             d="m 0,0 -59.565,-23.005 c -11.281,-4.357 -24.07,-0.204 -30.64,9.948 -7.339,11.342 -4.576,26.437 6.305,34.443 l 41.098,30.239 c 10.019,7.371 22.786,9.931 34.872,6.99 L 81.537,36.85"
             style="fill:none;stroke:#000000;stroke-width:20;stroke-linecap:round;stroke-linejoin:round;stroke-miterlimit:10;stroke-dasharray:none;stroke-opacity:1"
             id="path2047" /></g><g
           id="g2049"
           transform="translate(301,341.1323)"><path
             d="m 0,0 h 35.398 v 11.865 c 0,37.856 -30.688,68.543 -68.543,68.543 h -23.71 c -37.855,0 -68.543,-30.687 -68.543,-68.543 l 0,-11.865 H -90"
             style="fill:none;stroke:#000000;stroke-width:20;stroke-linecap:round;stroke-linejoin:round;stroke-miterlimit:10;stroke-dasharray:none;stroke-opacity:1"
             id="path2051" /></g><g
           id="g2053"
           transform="translate(256,502)"><path
             d="m 0,0 v 0 c -18.473,0 -33.448,-14.975 -33.448,-33.448 v -13.563 c 0,-18.473 14.975,-33.448 33.448,-33.448 18.473,0 33.448,14.975 33.448,33.448 v 13.563 C 33.448,-14.975 18.473,0 0,0 Z"
             style="fill:none;stroke:#000000;stroke-width:20;stroke-linecap:round;stroke-linejoin:round;stroke-miterlimit:10;stroke-dasharray:none;stroke-opacity:1"
             id="path2055" /></g><g
           id="g2057"
           transform="translate(256,421.5405)"><path
             d="M 0,0 V -23.658"
             style="fill:none;stroke:#000000;stroke-width:20;stroke-linecap:round;stroke-linejoin:round;stroke-miterlimit:10;stroke-dasharray:none;stroke-opacity:1"
             id="path2059" /></g><g
           id="g2061"
           transform="translate(360.1787,428.9443)"><path
             d="M 0,0 V -19.233"
             style="fill:none;stroke:#000000;stroke-width:20;stroke-linecap:round;stroke-linejoin:round;stroke-miterlimit:10;stroke-dasharray:none;stroke-opacity:1"
             id="path2063" /></g><g
           id="g2065"
           transform="translate(151.8213,428.9443)"><path
             d="M 0,0 V -19.233"
             style="fill:none;stroke:#000000;stroke-width:20;stroke-linecap:round;stroke-linejoin:round;stroke-miterlimit:10;stroke-dasharray:none;stroke-opacity:1"
             id="path2067" /></g><g
           id="g2069"
           transform="translate(256,341.1323)"><path
             d="M 0,0 V 0"
             style="fill:none;stroke:#000000;stroke-width:20;stroke-linecap:round;stroke-linejoin:round;stroke-miterlimit:10;stroke-dasharray:none;stroke-opacity:1"
             id="path2071" /></g></g></g></g></svg>
