<?xml version="1.0" encoding="UTF-8" standalone="no"?>
<!-- Created with Inkscape (http://www.inkscape.org/) -->
<svg xmlns="http://www.w3.org/2000/svg" xmlns:svg="http://www.w3.org/2000/svg" version="1.1" id="svg2760" width="682.66669" height="682.66669" viewBox="0 0 682.66669 682.66669">
  <defs id="defs2764">
    <clipPath clipPathUnits="userSpaceOnUse" id="clipPath2774">
      <path d="M 0,512 H 512 V 0 H 0 Z" id="path2772"/>
    </clipPath>
  </defs>
  <mask id="custom"><rect id="bg" x="0" y="0" width="100%" height="100%" fill="white"/><g transform="matrix(1.3333333,0,0,-1.3333333,0,682.66667)"><path transform="matrix(1,0,0,1,372,452)" d="m 0,0 c 5.52,0 10,-4.48 10,-10 0,-5.52 -4.48,-10 -10,-10 -5.52,0 -10,4.48 -10,10 0,5.52 4.48,10 10,10" style="fill:#ffffff;fill-opacity:1;fill-rule:nonzero;stroke:none" id="path2778"/><path transform="matrix(1,0,0,1,176,80)" d="m 0,0 c 5.52,0 10,-4.48 10,-10 0,-5.52 -4.48,-10 -10,-10 -5.52,0 -10,4.48 -10,10 0,5.52 4.48,10 10,10" style="fill:#ffffff;fill-opacity:1;fill-rule:nonzero;stroke:none" id="path2782"/></g></mask><g mask="url(#custom)"><g id="g2766" transform="matrix(1.3333333,0,0,-1.3333333,0,682.66667)">
    <g id="g2768">
      <g id="g2770" clip-path="url(#clipPath2774)">
        <g id="g2776" transform="translate(372,452)">
          <path d="m 0,0 c 5.52,0 10,-4.48 10,-10 0,-5.52 -4.48,-10 -10,-10 -5.52,0 -10,4.48 -10,10 0,5.52 4.48,10 10,10" style="fill:#000000;fill-opacity:1;fill-rule:nonzero;stroke:none" id="path2778"/>
        </g>
        <g id="g2780" transform="translate(176,80)">
          <path d="m 0,0 c 5.52,0 10,-4.48 10,-10 0,-5.52 -4.48,-10 -10,-10 -5.52,0 -10,4.48 -10,10 0,5.52 4.48,10 10,10" style="fill:#000000;fill-opacity:1;fill-rule:nonzero;stroke:none" id="path2782"/>
        </g>
        <g id="g2784" transform="translate(96,36.6699)">
          <path d="m 0,0 v -26.67 h -86 v 160 H 0 Z" style="fill:none;stroke:#000000;stroke-width:20;stroke-linecap:round;stroke-linejoin:round;stroke-miterlimit:10;stroke-dasharray:none;stroke-opacity:1" id="path2786"/>
        </g>
        <g id="g2788" transform="translate(350.9902,101.6602)">
          <path d="m 0,0 109.649,34.55 c 15.561,5.19 33.771,-1.62 39.431,-17.02 5.54,-15.091 -1.33,-30.82 -14.61,-37.46 L -6.54,-87.44 c -5.561,-2.77 -11.681,-4.22 -17.891,-4.22 H -202.88 c -7.9,0 -15.62,2.34 -22.19,6.72 l -29.92,19.95" style="fill:none;stroke:#000000;stroke-width:20;stroke-linecap:round;stroke-linejoin:round;stroke-miterlimit:10;stroke-dasharray:none;stroke-opacity:1" id="path2790"/>
        </g>
        <g id="g2792" transform="translate(277.25,282.9902)">
          <path d="m 0,0 -15.25,-60.99 59.96,29.98 c 15.4,-6.43 32.31,-9.98 50.04,-9.98 71.8,0 130,58.2 130,130 0,71.8 -58.2,130 -130,130 -71.8,0 -130,-58.2 -130,-130 C -35.25,54.569 -21.86,23.26 0,0 Z" style="fill:none;stroke:#000000;stroke-width:20;stroke-linecap:round;stroke-linejoin:round;stroke-miterlimit:10;stroke-dasharray:none;stroke-opacity:1" id="path2794"/>
        </g>
        <g id="g2796" transform="translate(96,150)">
          <path d="m 0,0 8.93,3.19 c 47.08,16.83 99.39,9.95 140.52,-18.48 1.81,-1.52 3.85,-2.7 6.03,-3.49 2.19,-0.8 4.51,-1.22 6.87,-1.22 h 62.69 c 16.01,0 29.09,-12.54 29.95,-28.34 0.03,-0.55 0.05,-1.1 0.05,-1.66 0,-16.57 -13.43,-30 -30,-30 H 123.37" style="fill:none;stroke:#000000;stroke-width:20;stroke-linecap:round;stroke-linejoin:round;stroke-miterlimit:10;stroke-dasharray:none;stroke-opacity:1" id="path2798"/>
        </g>
        <g id="g2800" transform="translate(372,402)">
          <path d="M 0,0 V -100" style="fill:none;stroke:#000000;stroke-width:20;stroke-linecap:round;stroke-linejoin:round;stroke-miterlimit:10;stroke-dasharray:none;stroke-opacity:1" id="path2802"/>
        </g>
      </g>
    </g>
  </g></g>
</svg>
