<svg id="Layer_2" height="512" viewBox="0 0 512 512" width="512" xmlns="http://www.w3.org/2000/svg" data-name="Layer 2"><g id="Icon"><path id="Inverted_Exclamation_Mark" d="m362 0h-212c-82.84 0-150 67.16-150 150v212c0 82.84 67.16 150 150 150h212c82.84 0 150-67.16 150-150v-212c0-82.84-67.16-150-150-150zm140 362c0 77.2-62.8 140-140 140h-212c-77.2 0-140-62.8-140-140v-212c0-77.2 62.8-140 140-140h212c77.2 0 140 62.8 140 140zm-199.5 50.24-13.09-227.94c-.3-5.29-4.68-9.43-9.98-9.43h-7.53c.63-.24 1.25-.49 1.87-.75 5.59-2.39 10.54-5.73 14.74-9.93 4.17-4.17 7.49-9.02 9.88-14.42 2.46-5.55 3.71-11.57 3.71-17.87s-1.23-12.52-3.66-18.18c-2.39-5.58-5.73-10.54-9.93-14.74-4.23-4.23-9.23-7.55-14.86-9.88-5.63-2.32-11.64-3.5-17.85-3.5s-12.43 1.18-18.01 3.52-10.52 5.68-14.67 9.93c-4.13 4.21-7.39 9.19-9.7 14.79-2.32 5.62-3.5 11.7-3.5 18.06s1.19 12.23 3.54 17.74c2.31 5.43 5.56 10.3 9.65 14.47 4.12 4.22 9.02 7.58 14.55 9.98.63.27 1.27.53 1.91.78h-7.2c-5.3 0-9.69 4.14-9.98 9.44l-12.87 227.94c-.16 2.75.83 5.43 2.72 7.43s4.52 3.13 7.27 3.13h73.03c2.75 0 5.38-1.13 7.27-3.13s2.87-4.69 2.71-7.44zm-72.24-255.12c-3.24-3.3-5.77-7.1-7.6-11.4-1.83-4.29-2.74-8.9-2.74-13.82s.91-9.81 2.74-14.25c1.83-4.43 4.36-8.3 7.6-11.61 3.24-3.3 7.03-5.87 11.4-7.7 4.36-1.83 9.08-2.74 14.14-2.74s9.6.92 14.04 2.74c4.43 1.83 8.3 4.4 11.61 7.7 3.3 3.31 5.91 7.18 7.81 11.61s2.85 9.18 2.85 14.25-.95 9.53-2.85 13.82-4.5 8.09-7.81 11.4-7.18 5.91-11.61 7.81-9.11 2.85-14.04 2.85-9.78-.95-14.14-2.85-8.16-4.5-11.4-7.81zm-10.76 255.69 12.87-227.94h47.07l13.09 227.94z" data-name="Inverted Exclamation Mark"/></g></svg>