<svg height="512" viewBox="0 0 128 128" width="512" xmlns="http://www.w3.org/2000/svg"><g><path d="m109 107.25h-6.128v-67.65a1.751 1.751 0 0 0 -1.75-1.75h-19.453v-18.85a1.751 1.751 0 0 0 -1.75-1.75h-33.257a1.75 1.75 0 0 0 -1.75 1.75v18.849h-19.452a1.751 1.751 0 0 0 -1.75 1.75v67.651h-4.71a1.75 1.75 0 1 0 0 3.5h90a1.75 1.75 0 0 0 0-3.5zm-81.79-65.901h17.7v65.9h-17.7zm21.2-1.75v-18.849h29.759v86.5h-29.757zm33.259 67.651v-65.9h17.7v65.9z"/><path d="m59.771 26.982h-6.356a1.5 1.5 0 0 0 -1.5 1.5v6.355a1.5 1.5 0 0 0 1.5 1.5h6.356a1.5 1.5 0 0 0 1.5-1.5v-6.355a1.5 1.5 0 0 0 -1.5-1.5zm-1.5 6.355h-3.356v-3.355h3.356z"/><path d="m73.165 26.982h-6.355a1.5 1.5 0 0 0 -1.5 1.5v6.355a1.5 1.5 0 0 0 1.5 1.5h6.355a1.5 1.5 0 0 0 1.5-1.5v-6.355a1.5 1.5 0 0 0 -1.5-1.5zm-1.5 6.355h-3.355v-3.355h3.355z"/><path d="m59.771 39.918h-6.356a1.5 1.5 0 0 0 -1.5 1.5v6.355a1.5 1.5 0 0 0 1.5 1.5h6.356a1.5 1.5 0 0 0 1.5-1.5v-6.355a1.5 1.5 0 0 0 -1.5-1.5zm-1.5 6.355h-3.356v-3.355h3.356z"/><path d="m73.165 39.918h-6.355a1.5 1.5 0 0 0 -1.5 1.5v6.355a1.5 1.5 0 0 0 1.5 1.5h6.355a1.5 1.5 0 0 0 1.5-1.5v-6.355a1.5 1.5 0 0 0 -1.5-1.5zm-1.5 6.355h-3.355v-3.355h3.355z"/><path d="m59.771 52.854h-6.356a1.5 1.5 0 0 0 -1.5 1.5v6.355a1.5 1.5 0 0 0 1.5 1.5h6.356a1.5 1.5 0 0 0 1.5-1.5v-6.355a1.5 1.5 0 0 0 -1.5-1.5zm-1.5 6.355h-3.356v-3.355h3.356z"/><path d="m39.238 46.273h-6.355a1.5 1.5 0 0 0 -1.5 1.5v6.356a1.5 1.5 0 0 0 1.5 1.5h6.355a1.5 1.5 0 0 0 1.5-1.5v-6.356a1.5 1.5 0 0 0 -1.5-1.5zm-1.5 6.356h-3.355v-3.356h3.355z"/><path d="m39.238 60.651h-6.355a1.5 1.5 0 0 0 -1.5 1.5v6.355a1.5 1.5 0 0 0 1.5 1.5h6.355a1.5 1.5 0 0 0 1.5-1.5v-6.355a1.5 1.5 0 0 0 -1.5-1.5zm-1.5 6.355h-3.355v-3.355h3.355z"/><path d="m39.238 75.028h-6.355a1.5 1.5 0 0 0 -1.5 1.5v6.356a1.5 1.5 0 0 0 1.5 1.5h6.355a1.5 1.5 0 0 0 1.5-1.5v-6.356a1.5 1.5 0 0 0 -1.5-1.5zm-1.5 6.356h-3.355v-3.356h3.355z"/><path d="m39.238 89.406h-6.355a1.5 1.5 0 0 0 -1.5 1.5v6.355a1.5 1.5 0 0 0 1.5 1.5h6.355a1.5 1.5 0 0 0 1.5-1.5v-6.355a1.5 1.5 0 0 0 -1.5-1.5zm-1.5 6.355h-3.355v-3.355h3.355z"/><path d="m93.7 46.273h-6.358a1.5 1.5 0 0 0 -1.5 1.5v6.356a1.5 1.5 0 0 0 1.5 1.5h6.358a1.5 1.5 0 0 0 1.5-1.5v-6.356a1.5 1.5 0 0 0 -1.5-1.5zm-1.5 6.356h-3.358v-3.356h3.358z"/><path d="m93.7 60.651h-6.358a1.5 1.5 0 0 0 -1.5 1.5v6.355a1.5 1.5 0 0 0 1.5 1.5h6.358a1.5 1.5 0 0 0 1.5-1.5v-6.355a1.5 1.5 0 0 0 -1.5-1.5zm-1.5 6.355h-3.358v-3.355h3.358z"/><path d="m93.7 75.028h-6.358a1.5 1.5 0 0 0 -1.5 1.5v6.356a1.5 1.5 0 0 0 1.5 1.5h6.358a1.5 1.5 0 0 0 1.5-1.5v-6.356a1.5 1.5 0 0 0 -1.5-1.5zm-1.5 6.356h-3.358v-3.356h3.358z"/><path d="m93.7 89.406h-6.358a1.5 1.5 0 0 0 -1.5 1.5v6.355a1.5 1.5 0 0 0 1.5 1.5h6.358a1.5 1.5 0 0 0 1.5-1.5v-6.355a1.5 1.5 0 0 0 -1.5-1.5zm-1.5 6.355h-3.358v-3.355h3.358z"/><path d="m73.165 52.854h-6.355a1.5 1.5 0 0 0 -1.5 1.5v6.355a1.5 1.5 0 0 0 1.5 1.5h6.355a1.5 1.5 0 0 0 1.5-1.5v-6.355a1.5 1.5 0 0 0 -1.5-1.5zm-1.5 6.355h-3.355v-3.355h3.355z"/><path d="m59.771 65.791h-6.356a1.5 1.5 0 0 0 -1.5 1.5v6.355a1.5 1.5 0 0 0 1.5 1.5h6.356a1.5 1.5 0 0 0 1.5-1.5v-6.355a1.5 1.5 0 0 0 -1.5-1.5zm-1.5 6.355h-3.356v-3.355h3.356z"/><path d="m73.165 65.791h-6.355a1.5 1.5 0 0 0 -1.5 1.5v6.355a1.5 1.5 0 0 0 1.5 1.5h6.355a1.5 1.5 0 0 0 1.5-1.5v-6.355a1.5 1.5 0 0 0 -1.5-1.5zm-1.5 6.355h-3.355v-3.355h3.355z"/><path d="m59.771 78.727h-6.356a1.5 1.5 0 0 0 -1.5 1.5v6.355a1.5 1.5 0 0 0 1.5 1.5h6.356a1.5 1.5 0 0 0 1.5-1.5v-6.355a1.5 1.5 0 0 0 -1.5-1.5zm-1.5 6.355h-3.356v-3.355h3.356z"/><path d="m73.165 78.727h-6.355a1.5 1.5 0 0 0 -1.5 1.5v6.355a1.5 1.5 0 0 0 1.5 1.5h6.355a1.5 1.5 0 0 0 1.5-1.5v-6.355a1.5 1.5 0 0 0 -1.5-1.5zm-1.5 6.355h-3.355v-3.355h3.355z"/><path d="m59.771 91.663h-6.356a1.5 1.5 0 0 0 -1.5 1.5v6.355a1.5 1.5 0 0 0 1.5 1.5h6.356a1.5 1.5 0 0 0 1.5-1.5v-6.355a1.5 1.5 0 0 0 -1.5-1.5zm-1.5 6.355h-3.356v-3.355h3.356z"/><path d="m73.165 91.663h-6.355a1.5 1.5 0 0 0 -1.5 1.5v6.355a1.5 1.5 0 0 0 1.5 1.5h6.355a1.5 1.5 0 0 0 1.5-1.5v-6.355a1.5 1.5 0 0 0 -1.5-1.5zm-1.5 6.355h-3.355v-3.355h3.355z"/></g></svg>