<?xml version="1.0" encoding="UTF-8" standalone="no"?>
<!-- Created with Inkscape (http://www.inkscape.org/) -->

<svg
   version="1.1"
   id="svg3777"
   xml:space="preserve"
   width="682.66669"
   height="682.66669"
   viewBox="0 0 682.66669 682.66669"
   xmlns="http://www.w3.org/2000/svg"
   xmlns:svg="http://www.w3.org/2000/svg"><defs
     id="defs3781"><clipPath
       clipPathUnits="userSpaceOnUse"
       id="clipPath3791"><path
         d="M 0,512 H 512 V 0 H 0 Z"
         id="path3789" /></clipPath></defs><g
     id="g3783"
     transform="matrix(1.3333333,0,0,-1.3333333,0,682.66667)"><g
       id="g3785"><g
         id="g3787"
         clip-path="url(#clipPath3791)"><g
           id="g3793"
           transform="translate(387.8662,205.623)"><path
             d="m 0,0 -214.733,-63.563 c -10.473,-3.097 -16.447,-14.101 -13.35,-24.575 l 27.623,-93.31 c 2.465,-8.339 9.932,-13.831 18.15,-14.162 H -312.994 V 244.681 H 0 V 91.353"
             style="fill:none;stroke:#000000;stroke-width:20;stroke-linecap:round;stroke-linejoin:round;stroke-miterlimit:10;stroke-dasharray:none;stroke-opacity:1"
             id="path3795" /></g><g
           id="g3797"
           transform="translate(211.981,10.8145)"><path
             d="M 0,0 175.885,52.067 V -0.802 H -4.741 C -3.167,-0.731 -1.583,-0.461 0,0 Z"
             style="fill:none;stroke:#000000;stroke-width:20;stroke-linecap:round;stroke-linejoin:round;stroke-miterlimit:10;stroke-dasharray:none;stroke-opacity:1"
             id="path3799" /></g><g
           id="g3801"
           transform="translate(336.5107,502)"><path
             d="m 0,0 v -51.696 h -261.638 v -388.595 h -51.356 V 0 Z"
             style="fill:none;stroke:#000000;stroke-width:20;stroke-linecap:round;stroke-linejoin:round;stroke-miterlimit:10;stroke-dasharray:none;stroke-opacity:1"
             id="path3803" /></g><g
           id="g3805"
           transform="translate(474.3125,88.4668)"><path
             d="m 0,0 -262.329,-77.648 c -10.474,-3.101 -21.479,2.877 -24.579,13.351 l -27.62,93.315 c -3.101,10.473 2.877,21.478 13.351,24.579 l 262.329,77.648 c 10.475,3.1 21.479,-2.878 24.579,-13.351 L 13.352,24.579 C 16.452,14.105 10.475,3.101 0,0 Z"
             style="fill:none;stroke:#000000;stroke-width:20;stroke-linecap:round;stroke-linejoin:round;stroke-miterlimit:10;stroke-dasharray:none;stroke-opacity:1"
             id="path3807" /></g><g
           id="g3809"
           transform="translate(221.6953,53.6377)"><path
             d="M 0,0 -17.205,58.125 5.581,64.87 C 14.402,67.481 23.67,62.446 26.282,53.625 28.893,44.804 23.858,35.535 15.037,32.924 L -7.749,26.18"
             style="fill:none;stroke:#000000;stroke-width:20;stroke-linecap:round;stroke-linejoin:round;stroke-miterlimit:10;stroke-dasharray:none;stroke-opacity:1"
             id="path3811" /></g><g
           id="g3813"
           transform="translate(282.1904,71.5439)"><path
             d="M 0,0 5.22,64.763 45.489,13.465"
             style="fill:none;stroke:#000000;stroke-width:20;stroke-linecap:round;stroke-linejoin:round;stroke-miterlimit:10;stroke-dasharray:none;stroke-opacity:1"
             id="path3815" /></g><g
           id="g3817"
           transform="translate(347.9561,154.2285)"><path
             d="M 0,0 17.204,-58.126"
             style="fill:none;stroke:#000000;stroke-width:20;stroke-linecap:round;stroke-linejoin:round;stroke-miterlimit:10;stroke-dasharray:none;stroke-opacity:1"
             id="path3819" /></g><g
           id="g3821"
           transform="translate(426.9873,114.4033)"><path
             d="m 0,0 -23.254,-6.883 -17.205,58.125 23.254,6.884 C -8.642,60.66 0.354,55.773 2.89,47.21 L 10.915,20.095 C 13.45,11.531 8.563,2.535 0,0 Z"
             style="fill:none;stroke:#000000;stroke-width:20;stroke-linecap:round;stroke-linejoin:round;stroke-miterlimit:10;stroke-dasharray:none;stroke-opacity:1"
             id="path3823" /></g><g
           id="g3825"
           transform="translate(283.1523,83.4785)"><path
             d="M 0,0 37.107,10.983"
             style="fill:none;stroke:#000000;stroke-width:20;stroke-linecap:round;stroke-linejoin:round;stroke-miterlimit:10;stroke-dasharray:none;stroke-opacity:1"
             id="path3827" /></g><g
           id="g3829"
           transform="translate(387.8662,251.0215)"><path
             d="M 0,0 V 0"
             style="fill:none;stroke:#000000;stroke-width:20;stroke-linecap:round;stroke-linejoin:round;stroke-miterlimit:10;stroke-dasharray:none;stroke-opacity:1"
             id="path3831" /></g><g
           id="g3833"
           transform="translate(180.6768,395.6777)"><path
             d="m 0,0 h -27.799 c -7.745,0 -14.023,-6.278 -14.023,-14.022 v -6.995 c 0,-7.745 6.278,-14.023 14.023,-14.023 h 13.776 C -6.279,-35.04 0,-41.318 0,-49.063 v -7.559 c 0,-7.744 -6.279,-14.023 -14.023,-14.023 h -27.799"
             style="fill:none;stroke:#000000;stroke-width:20;stroke-linecap:round;stroke-linejoin:round;stroke-miterlimit:10;stroke-dasharray:none;stroke-opacity:1"
             id="path3835" /></g><g
           id="g3837"
           transform="translate(160.0103,407.7295)"><path
             d="M 0,0 V -12.052"
             style="fill:none;stroke:#000000;stroke-width:20;stroke-linecap:round;stroke-linejoin:round;stroke-miterlimit:10;stroke-dasharray:none;stroke-opacity:1"
             id="path3839" /></g><g
           id="g3841"
           transform="translate(159.7656,325.0332)"><path
             d="M 0,0 V -9.653"
             style="fill:none;stroke:#000000;stroke-width:20;stroke-linecap:round;stroke-linejoin:round;stroke-miterlimit:10;stroke-dasharray:none;stroke-opacity:1"
             id="path3843" /></g><g
           id="g3845"
           transform="translate(236.917,398.7168)"><path
             d="M 0,0 H 92.265"
             style="fill:none;stroke:#000000;stroke-width:20;stroke-linecap:round;stroke-linejoin:round;stroke-miterlimit:10;stroke-dasharray:none;stroke-opacity:1"
             id="path3847" /></g><g
           id="g3849"
           transform="translate(236.917,360.3555)"><path
             d="M 0,0 H 92.265"
             style="fill:none;stroke:#000000;stroke-width:20;stroke-linecap:round;stroke-linejoin:round;stroke-miterlimit:10;stroke-dasharray:none;stroke-opacity:1"
             id="path3851" /></g><g
           id="g3853"
           transform="translate(236.917,321.9941)"><path
             d="M 0,0 H 92.265"
             style="fill:none;stroke:#000000;stroke-width:20;stroke-linecap:round;stroke-linejoin:round;stroke-miterlimit:10;stroke-dasharray:none;stroke-opacity:1"
             id="path3855" /></g><path
           d="M 329.182,231.922 H 138.855 v 41.785 h 190.327 z"
           style="fill:none;stroke:#000000;stroke-width:20;stroke-linecap:round;stroke-linejoin:round;stroke-miterlimit:10;stroke-dasharray:none;stroke-opacity:1"
           id="path3857" /><g
           id="g3859"
           transform="translate(140.9683,187.6201)"><path
             d="M 0,0 H 51.414"
             style="fill:none;stroke:#000000;stroke-width:20;stroke-linecap:round;stroke-linejoin:round;stroke-miterlimit:10;stroke-dasharray:none;stroke-opacity:1"
             id="path3861" /></g></g></g></g></svg>
