<?xml version="1.0" encoding="UTF-8"?>
<svg xmlns="http://www.w3.org/2000/svg" xmlns:xlink="http://www.w3.org/1999/xlink" version="1.1" id="Capa_1" x="0px" y="0px" viewBox="0 0 512 512" style="enable-background:new 0 0 512 512;" xml:space="preserve" width="512" height="512">
<g>
	<path style="fill:none;stroke:#000000;stroke-width:15;stroke-linecap:round;stroke-linejoin:round;stroke-miterlimit:10;" d="&#10;&#9;&#9;M493.533,352.81l-288.981,96.327c-8.4,2.8-17.479-1.74-20.279-10.14l-40.559-121.676c-2.8-8.4,1.74-17.479,10.14-20.279&#10;&#9;&#9;l288.981-96.327c8.4-2.8,17.479,1.74,20.279,10.14l40.559,121.676C506.473,340.93,501.933,350.01,493.533,352.81z"/>
	<g>
		<path style="fill:none;stroke:#000000;stroke-width:15;stroke-linecap:round;stroke-linejoin:round;stroke-miterlimit:10;" d="&#10;&#9;&#9;&#9;M277.596,382.398l3.58-84.877c0.108-1.628,2.136-2.307,3.203-1.071l53.53,65.844"/>
		
			<line style="fill:none;stroke:#000000;stroke-width:15;stroke-linecap:round;stroke-linejoin:round;stroke-miterlimit:10;" x1="280.29" y1="360.659" x2="322.855" y2="346.47"/>
	</g>
	<g>
		
			<line style="fill:none;stroke:#000000;stroke-width:15;stroke-linecap:round;stroke-linejoin:round;stroke-miterlimit:10;" x1="343.075" y1="275.693" x2="368.539" y2="352.084"/>
	</g>
	<path style="fill:none;stroke:#000000;stroke-width:15;stroke-linecap:round;stroke-linejoin:round;stroke-miterlimit:10;" d="&#10;&#9;&#9;M441.473,285.333c6.809,20.426,0.86,40.367-17.021,46.677c-5.952,2.1-21.405,7.316-21.405,7.316s-9.047-26.819-12.479-37.115&#10;&#9;&#9;c-2.819-8.456-12.382-36.966-12.382-36.966s13.92-4.64,20.996-6.999C418.909,251.67,434.664,264.907,441.473,285.333z"/>
	<g>
		
			<line style="fill:none;stroke:#000000;stroke-width:15;stroke-linecap:round;stroke-linejoin:round;stroke-miterlimit:10;" x1="195.785" y1="324.789" x2="221.249" y2="401.181"/>
		<path style="fill:none;stroke:#000000;stroke-width:15;stroke-linecap:round;stroke-linejoin:round;stroke-miterlimit:10;" d="&#10;&#9;&#9;&#9;M246.221,331.93c3.969,11.906-2.888,24.916-14.794,28.884c-5.905,1.968-21.091,7.136-21.091,7.136s-5.312-15.62-7.313-21.621&#10;&#9;&#9;&#9;c-1.643-4.929-7.239-21.54-7.239-21.54s14.294-4.765,21.271-7.09C228.962,313.73,242.253,320.024,246.221,331.93z"/>
	</g>
	
		<polyline style="fill:none;stroke:#000000;stroke-width:15;stroke-linecap:round;stroke-linejoin:round;stroke-miterlimit:10;" points="&#10;&#9;&#9;328.145,203.453 328.145,7.5 7.5,7.5 7.5,504.5 34.22,488.468 60.941,504.5 87.661,488.468 114.382,504.5 141.102,488.468 &#10;&#9;&#9;167.823,504.5 194.543,488.468 221.263,504.5 247.984,488.468 274.704,504.5 301.425,488.468 328.145,504.5 328.145,444.372 &#9;"/>
	<path style="fill:none;stroke:#000000;stroke-width:15;stroke-linecap:round;stroke-linejoin:round;stroke-miterlimit:10;" d="&#10;&#9;&#9;M126.09,85.79c0,0-16.944-15.628-43.061-7.76c-23.981,7.224-29.937,40.036-13.64,52.818c9.357,7.339,23.437,13.373,42.412,20.081&#10;&#9;&#9;c42.47,15.012,26.77,74.905-16.431,75.193c-16.859,0.112-24.741-0.958-39.55-10.646"/>
	
		<line style="fill:none;stroke:#000000;stroke-width:15;stroke-linecap:round;stroke-linejoin:round;stroke-miterlimit:10;" x1="95.371" y1="55.597" x2="95.371" y2="247.984"/>
	
		<line style="fill:none;stroke:#000000;stroke-width:15;stroke-linecap:round;stroke-linejoin:round;stroke-miterlimit:10;" x1="183.855" y1="79.645" x2="272.032" y2="79.645"/>
	
		<line style="fill:none;stroke:#000000;stroke-width:15;stroke-linecap:round;stroke-linejoin:round;stroke-miterlimit:10;" x1="183.855" y1="119.726" x2="272.032" y2="119.726"/>
	
		<line style="fill:none;stroke:#000000;stroke-width:15;stroke-linecap:round;stroke-linejoin:round;stroke-miterlimit:10;" x1="183.855" y1="159.806" x2="272.032" y2="159.806"/>
	
		<line style="fill:none;stroke:#000000;stroke-width:15;stroke-linecap:round;stroke-linejoin:round;stroke-miterlimit:10;" x1="183.855" y1="199.887" x2="272.032" y2="199.887"/>
	
		<line style="fill:none;stroke:#000000;stroke-width:15;stroke-linecap:round;stroke-linejoin:round;stroke-miterlimit:10;" x1="55.597" y1="296.081" x2="95.677" y2="296.081"/>
	
		<line style="fill:none;stroke:#000000;stroke-width:15;stroke-linecap:round;stroke-linejoin:round;stroke-miterlimit:10;" x1="55.597" y1="376.242" x2="115.32" y2="376.242"/>
	
		<line style="fill:none;stroke:#000000;stroke-width:15;stroke-linecap:round;stroke-linejoin:round;stroke-miterlimit:10;" x1="55.597" y1="416.323" x2="127.742" y2="416.323"/>
	
		<line style="fill:none;stroke:#000000;stroke-width:15;stroke-linecap:round;stroke-linejoin:round;stroke-miterlimit:10;" x1="55.597" y1="336.161" x2="103.694" y2="336.161"/>
</g>















</svg>
