<svg id="Capa_1" enable-background="new 0 0 512 512" height="512" viewBox="0 0 512 512" width="512" xmlns="http://www.w3.org/2000/svg"><g><path d="m92.806 191.028h120.236c8.284 0 15-6.716 15-15s-6.716-15-15-15h-120.236c-8.284 0-15 6.716-15 15s6.716 15 15 15z"/><path d="m210.451 341.028h-117.645c-8.284 0-15 6.716-15 15s6.716 15 15 15h117.645c8.284 0 15-6.716 15-15s-6.716-15-15-15z"/><path d="m210.451 401.028h-117.645c-8.284 0-15 6.716-15 15s6.716 15 15 15h117.645c8.284 0 15-6.716 15-15s-6.716-15-15-15z"/><path d="m500.589 256c0-57.954-43.283-105.984-99.219-113.477v-127.523c0-8.284-6.716-15-15-15h-268.931c-3.979 0-7.794 1.581-10.607 4.395l-91.028 91.04c-2.812 2.812-4.393 6.628-4.393 10.605v390.96c0 8.284 6.716 15 15 15h359.96c8.284 0 15-6.716 15-15v-127.523c55.936-7.493 99.218-55.523 99.218-113.477zm-398.15-204.783v39.812h-39.806zm-61.028 430.783v-360.972h76.028c8.284 0 15-6.716 15-15v-76.028h238.932v112.445c-44.422 5.726-80.944 37.012-94.31 78.584h-184.255c-8.284 0-15 6.716-15 15s6.716 15 15 15h178.901c-.071 1.649-.115 3.305-.115 4.972 0 8.595.959 16.969 2.763 25.028h-181.549c-8.284 0-15 6.716-15 15s6.716 15 15 15h192.903c17.243 31.328 48.72 53.765 85.661 58.527v112.444zm344.679-141.501c-46.593 0-84.498-37.906-84.498-84.499s37.905-84.499 84.498-84.499 84.499 37.906 84.499 84.499-37.906 84.499-84.499 84.499z"/><path d="m407.303 255.922 13.535-13.635c5.836-5.879 5.802-15.377-.078-21.213-5.879-5.836-15.377-5.804-21.213.078l-13.535 13.634-13.634-13.535c-5.879-5.836-15.375-5.804-21.213.078-5.836 5.879-5.802 15.376.078 21.213l13.634 13.535-13.536 13.635c-5.836 5.879-5.802 15.377.078 21.213 2.926 2.904 6.746 4.354 10.567 4.354 3.856 0 7.714-1.479 10.646-4.433l13.535-13.635 13.635 13.535c2.926 2.904 6.746 4.354 10.567 4.354 3.856 0 7.713-1.479 10.646-4.433 5.836-5.879 5.802-15.376-.078-21.213z"/></g></svg>