<svg id="Capa_1" enable-background="new 0 0 512 512" height="512" viewBox="0 0 512 512" width="512" xmlns="http://www.w3.org/2000/svg"><g><g><path d="m500.738 256c0-58.061-43.434-106.163-99.515-113.533v-127.467c0-8.284-6.716-15-15-15h-268.933c-3.979 0-7.794 1.581-10.607 4.395l-91.028 91.04c-2.812 2.812-4.393 6.628-4.393 10.605v390.96c0 8.284 6.716 15 15 15h359.961c8.284 0 15-6.716 15-15v-127.467c56.081-7.37 99.515-55.472 99.515-113.533zm-398.448-204.783v39.812h-39.806zm-61.028 430.783v-360.972h76.028c8.284 0 15-6.716 15-15v-76.028h238.933v112.467c-56.081 7.37-99.516 55.472-99.516 113.533s43.434 106.163 99.516 113.533v112.467zm344.961-141.484c-46.602 0-84.516-37.913-84.516-84.516s37.914-84.516 84.516-84.516 84.515 37.913 84.515 84.516-37.913 84.516-84.515 84.516z"/><path d="m420.144 226.199c-5.857-5.857-15.355-5.857-21.213 0l-11.55 11.55-11.55-11.55c-5.857-5.857-15.355-5.857-21.213 0s-5.858 15.355 0 21.213l11.55 11.55-11.55 11.55c-5.858 5.857-5.858 15.355 0 21.213 2.929 2.929 6.768 4.394 10.606 4.394s7.678-1.465 10.606-4.394l11.55-11.55 11.55 11.55c2.929 2.929 6.768 4.394 10.606 4.394s7.678-1.465 10.606-4.394c5.858-5.857 5.858-15.355 0-21.213l-11.55-11.55 11.55-11.55c5.86-5.857 5.86-15.355.002-21.213z"/></g><g><path d="m86.232 181.028h174.24c8.284 0 15-6.716 15-15s-6.716-15-15-15h-174.24c-8.284 0-15 6.716-15 15s6.716 15 15 15z"/><path d="m230.47 211.032h-144.238c-8.284 0-15 6.716-15 15s6.716 15 15 15h144.238c8.284 0 15-6.716 15-15s-6.716-15-15-15z"/><path d="m326.219 421.995h-64.233c-8.284 0-15 6.716-15 15s6.716 15 15 15h64.233c8.284 0 15-6.716 15-15s-6.716-15-15-15z"/><path d="m148.283 345.888c-10.518-3.718-22.121-8.187-28.437-13.141-.977-.767-1.702-3.25-1.119-6.343.29-1.539 1.631-6.679 6.705-8.207 9.729-2.93 16.305.885 18.68 2.66 6.635 4.961 16.033 3.604 20.996-3.03 4.961-6.635 3.604-16.034-3.031-20.995-2.36-1.765-7.863-5.396-15.728-7.678v-2.612c0-8.284-6.716-15-15-15s-15 6.716-15 15v3.077c-13.919 4.372-24.288 16.29-27.103 31.23-2.636 13.985 1.996 27.59 12.085 35.504 9.704 7.611 23.495 13.062 36.953 17.82 8.975 3.172 9.882 9.646 9.062 14.52-1.15 6.842-6.907 14.235-16.829 14.301-11.08.088-13.954-.38-22.176-5.759-6.932-4.535-16.23-2.592-20.764 4.342-4.535 6.933-2.591 16.229 4.341 20.764 9.293 6.079 16.303 8.801 24.43 9.932v2.575c0 8.284 6.716 15 15 15s15-6.716 15-15v-4.537c17.106-6.057 28.029-21.45 30.583-36.644 3.575-21.258-7.939-40.459-28.648-47.779z"/></g></g></svg>