<svg height="317.782pt" viewBox="0 0 317.782 317.782" width="317.782pt" xmlns="http://www.w3.org/2000/svg"><path d="m158.890625 317.78125c87.613281 0 158.890625-71.277344 158.890625-158.890625s-71.277344-158.890625-158.890625-158.890625-158.890625 71.277344-158.890625 158.890625 71.277344 158.890625 158.890625 158.890625zm0-305.78125c81 0 146.890625 65.898438 146.890625 146.890625s-65.890625 146.890625-146.890625 146.890625-146.890625-65.890625-146.890625-146.890625 65.890625-146.890625 146.890625-146.890625zm0 0"/><path d="m152.890625 155.773438v17.117187h-29.117187c-3.3125 0-6 2.6875-6 6s2.6875 6 6 6h29.117187v18h-29.117187c-3.3125 0-6 2.6875-6 6s2.6875 6 6 6h29.117187v29.117187c0 3.3125 2.6875 6 6 6s6-2.6875 6-6v-29.117187h29.117187c3.3125 0 6-2.6875 6-6s-2.6875-6-6-6h-29.117187v-18h29.117187c3.3125 0 6-2.6875 6-6s-2.6875-6-6-6h-29.117187v-17.117187l58.800781-78.398438c1.988282-2.652344 1.449219-6.410156-1.199218-8.398438-2.652344-1.988281-6.414063-1.453124-8.402344 1.199219l-55.199219 73.597657-55.199219-73.597657c-1.988281-2.652343-5.75-3.1875-8.402344-1.199219-2.648437 1.988282-3.1875 5.746094-1.199218 8.398438zm0 0"/></svg>