<svg id="Layer_1" height="512" viewBox="0 0 67 67" width="512" xmlns="http://www.w3.org/2000/svg"><g><path d="m65.5 22.1h-4.2v-4.6c0-.6-.4-1-1-1h-4.2v-4.5c0-.6-.4-1-1-1h-53.6c-.6 0-1 .4-1 1v31.9c0 .6.4 1 1 1h4.2v4.6c0 .6.4 1 1 1h4.2v4.5c0 .6.4 1 1 1h53.6c.6 0 1-.4 1-1 0-27.8 0-4.1 0-31.9 0-.5-.4-1-1-1zm-1 7.7c-2.9-.4-5.2-2.8-5.7-5.7.1 0 6 0 5.7 0zm-62 13.1v-29.9h51.6v3.6h-47.4c-.6 0-1 .4-1 1v25.3zm5.2 5.5c0-10.5 0-18.6 0-29.9h51.6v3.6c-5.4 0-42.6 0-47.3 0-.6 0-1 .4-1 1v25.3zm10.9-24.3c-.4 2.9-2.8 5.2-5.7 5.7v-5.7zm-5.7 24.2c2.9.4 5.2 2.8 5.7 5.7h-5.7c0-.1 0-5.8 0-5.7zm7.7 5.7c-.5-4-3.7-7.2-7.7-7.7v-14.4c4-.5 7.3-3.7 7.7-7.7h36.1c.5 4 3.7 7.2 7.7 7.7v14.5c-4 .5-7.3 3.7-7.7 7.7h-36.1zm38.2 0c.4-2.9 2.8-5.2 5.7-5.7v5.7z"/><path d="m38.7 25.9c-7.3 0-13.2 5.9-13.2 13.2s5.9 13.2 13.2 13.2 13.2-5.9 13.2-13.2-5.9-13.2-13.2-13.2zm0 24.3c-6.2 0-11.2-5-11.2-11.2s5-11.2 11.2-11.2 11.2 5 11.2 11.2-5 11.2-11.2 11.2z"/><path d="m43.3 33.2c.4-.4.4-1 0-1.4s-1-.4-1.4 0l-3.1 3.1-3.1-3.1c-.4-.4-1-.4-1.4 0s-.4 1 0 1.4l3.5 3.5v1h-2.6c-.6 0-1 .4-1 1s.4 1 1 1h2.6v1.5h-2.6c-.6 0-1 .4-1 1s.4 1 1 1h2.6v2.3c0 .6.4 1 1 1s1-.4 1-1v-2.3h2.6c.6 0 1-.4 1-1s-.4-1-1-1h-2.6v-1.5h2.6c.6 0 1-.4 1-1s-.4-1-1-1h-2.6v-1z"/></g></svg>