<?xml version="1.0" encoding="UTF-8"?>
<svg xmlns="http://www.w3.org/2000/svg" id="Layer_1" data-name="Layer 1" viewBox="0 0 512 512" width="512" height="512"><path d="M229.063,332.461a6,6,0,0,0-8.367,1.412L197.151,366.98l-24.136-33.16a6,6,0,0,0-9.7,7.061l25.648,35.236H170.933a6,6,0,1,0,0,12h19.942v8.621H170.933a6,6,0,0,0,0,12h19.942v18.613a6,6,0,0,0,12,0V408.738h19.942a6,6,0,1,0,0-12H202.875v-8.621h19.942a6,6,0,0,0,0-12H205.379l25.1-35.289A6,6,0,0,0,229.063,332.461Z"/><path d="M74.688,69.031a6,6,0,0,0,8.443-.841h0c.715-.874,3.169-3.029,7.831-5.565A6,6,0,1,0,85.31,52.039l-.081.044c-6.934,3.771-10.108,6.947-11.383,8.5a6,6,0,0,0,.837,8.444Z"/><path d="M109.767,54.891a5.987,5.987,0,0,0,1.646-.231c17.051-4.853,38.291-7.526,59.809-7.526a6,6,0,0,0,0-12c-22.925,0-44.743,2.761-63.094,7.984a6,6,0,0,0,1.639,11.773Z"/><path d="M202.328,292.9a88.112,88.112,0,1,0,35.166,166.865,6,6,0,0,0,1.357-9.748h0a6.042,6.042,0,0,0-6.833-.945,76.129,76.129,0,1,1,33.327-32.349,5.867,5.867,0,0,0,1.123,7.086l.266.247a5.831,5.831,0,0,0,9.109-1.518A88.079,88.079,0,0,0,202.328,292.9Z"/><path d="M426.4,250.706c-22.968-9.187-53.375-14.247-85.623-14.247a282.661,282.661,0,0,0-45.62,3.619V63.309c0-15.22-13.607-29.045-38.315-38.928-22.967-9.187-53.374-14.247-85.621-14.247S108.567,15.194,85.6,24.381C60.892,34.264,47.285,48.089,47.285,63.309V346.356c0,13.327,10.609,25.748,29.974,35.236a120.888,120.888,0,0,0,195.663,94.372c20.095,5.475,43.474,8.368,67.856,8.368,32.248,0,62.655-5.06,85.623-14.247,24.707-9.882,38.314-23.708,38.314-38.928V289.634C464.715,274.414,451.108,260.588,426.4,250.706ZM90.056,35.522c21.584-8.633,50.409-13.388,81.166-13.388s59.581,4.755,81.165,13.388c19.555,7.823,30.771,17.951,30.771,27.787S271.942,83.273,252.387,91.1c-21.584,8.633-50.409,13.388-81.165,13.388S111.64,99.729,90.056,91.1C70.5,83.273,59.285,73.146,59.285,63.309S70.5,43.345,90.056,35.522ZM59.285,133.96a70.462,70.462,0,0,0,12.5,8.869,5.991,5.991,0,1,0,6.116-10.3c-.073-.043-.147-.085-.222-.125-11.831-6.7-18.394-14.392-18.394-21.914v-23.7c6.39,5.79,15.231,11.018,26.314,15.451,22.968,9.187,53.375,14.247,85.623,14.247s62.654-5.06,85.621-14.247c11.084-4.433,19.925-9.661,26.315-15.451v23.7c0,9.837-11.216,19.965-30.771,27.787-21.583,8.633-50.409,13.388-81.165,13.388a270.7,270.7,0,0,1-45.489-3.716,5.934,5.934,0,0,0-6.97,5.828v.149a5.925,5.925,0,0,0,4.921,5.842,282.733,282.733,0,0,0,47.538,3.9c32.247,0,62.655-5.06,85.621-14.246,11.084-4.434,19.925-9.662,26.315-15.452v23.7c0,9.836-11.216,19.964-30.771,27.786-21.584,8.634-50.409,13.389-81.165,13.389s-59.584-4.754-81.166-13.387c-19.556-7.83-30.771-17.954-30.771-27.8Zm0,47.176c6.39,5.79,15.231,11.019,26.314,15.452,22.966,9.185,53.374,14.245,85.623,14.245s62.654-5.06,85.621-14.247c11.084-4.433,19.925-9.662,26.315-15.452v23.7c0,9.836-11.216,19.964-30.771,27.786-21.584,8.633-50.409,13.388-81.165,13.388s-59.582-4.755-81.166-13.388C70.5,224.8,59.285,214.669,59.285,204.833Zm0,47.173c6.39,5.79,15.231,11.018,26.314,15.452,22.968,9.187,53.375,14.246,85.623,14.246s62.654-5.059,85.621-14.246c11.084-4.434,19.925-9.662,26.315-15.452v14.059c-22.218,4.856-40.672,12.487-52.328,22.065a120.825,120.825,0,0,0-110.515,24.022c-36.625-7.217-61.03-21.715-61.03-36.448Zm0,47.092c10.667,9.689,28.053,17.73,50.52,23.05a121.478,121.478,0,0,0-19.82,28.483c-19.326-7.751-30.7-17.943-30.7-27.753ZM77.9,368.368c-11.921-6.742-18.613-14.542-18.613-22.012V322.714c6.3,5.687,14.985,10.82,25.866,15.211A119.993,119.993,0,0,0,77.9,368.368ZM274.579,448.8a6,6,0,0,0-8.485,8.486l4.753,4.752A108.517,108.517,0,0,1,204.2,489.7v-6.775a6,6,0,0,0-12,0V489.7a108.516,108.516,0,0,1-66.643-27.658l4.753-4.752a6,6,0,0,0-8.486-8.486h0l-4.752,4.753a108.516,108.516,0,0,1-27.658-66.643H96.19a6,6,0,0,0,0-12H89.418a108.516,108.516,0,0,1,27.658-66.643l4.753,4.754a6,6,0,1,0,8.486-8.485l-4.754-4.754a108.524,108.524,0,0,1,66.639-27.66V278.9a6,6,0,0,0,12,0v-6.776a108.518,108.518,0,0,1,66.643,27.658l-4.754,4.754a6,6,0,0,0,8.486,8.485h0l4.753-4.754a108.516,108.516,0,0,1,27.658,66.643h-6.775a6,6,0,0,0,0,12h6.775a108.516,108.516,0,0,1-27.658,66.643Zm178.136-17.645c0,9.837-11.216,19.965-30.771,27.787-21.584,8.633-50.409,13.388-81.166,13.388a258.8,258.8,0,0,1-57-6.02A121.589,121.589,0,0,0,306.3,435.136a285.778,285.778,0,0,0,33.76,2.023c32.247,0,63.373-5.061,86.341-14.248,11.083-4.433,19.924-9.662,26.314-15.452Zm0-47.175c0,9.837-11.216,19.965-30.771,27.788-21.584,8.633-50.408,13.387-81.2,13.387a260.869,260.869,0,0,1-29.389-1.52,120.131,120.131,0,0,0,7.513-34.457c7.164.53,14.49.8,21.536.8,32.247,0,63.027-5.06,86-14.247,11.083-4.433,19.924-9.661,26.314-15.451Zm0-47.173c0,9.836-11.216,19.964-30.771,27.786-21.584,8.633-50.409,13.387-81.182,13.387-7.2.01-14.463-.269-21.668-.824a120.3,120.3,0,0,0-6.548-35.695c9.176.891,18.574,1.347,27.553,1.347,32.247,0,63.334-5.061,86.3-14.248,11.083-4.433,19.924-9.662,26.314-15.452ZM421.944,317.42c-21.584,8.634-50.409,13.389-81.2,13.389a260.491,260.491,0,0,1-33.394-1.986,121.688,121.688,0,0,0-62.671-59.572c20.356-12.665,56.961-20.792,96.1-20.792,30.757,0,59.582,4.755,81.166,13.388,19.555,7.822,30.771,17.95,30.771,27.787S441.5,309.6,421.944,317.42Z"/></svg>
